<?xml version="1.0" encoding="UTF-8"?>
<svg width="92px" height="92px" viewBox="0 0 92 92" version="1.1" xmlns="http://www.w3.org/2000/svg" xmlns:xlink="http://www.w3.org/1999/xlink">
    <!-- Generator: Sketch 43.2 (39069) - http://www.bohemiancoding.com/sketch -->
    <title>Oval</title>
    <desc>Created with Sketch.</desc>
    <defs></defs>
    <g id="Page-1" stroke="none" stroke-width="1" fill="none" fill-rule="evenodd">
        <path d="M21.7154019,45.9756151 C24.2214481,45.9756151 22.7965926,58.1895419 30.6771644,68.7699939 C38.5577362,79.3504458 59.0113579,92.7665213 61.6767036,91.7732292 C79.3633953,85.1819449 92,67.755948 92,47.2953989 C92,43.3095374 91.520443,39.4388367 90.6174154,35.7409625 C90.1340038,33.7614049 85.2026206,49.4326119 74.4554325,55.2073685 C63.7082444,60.9821251 46.944924,56.9682214 46,55.2073685 C45.4738397,54.226876 60.9260895,53.9551268 69.5748861,45.9749689 C78.2236827,37.9948111 83.2063444,19.4480668 82.4337157,18.4190706 C74.0217005,7.21584865 60.8304456,0 46,0 C40.1531715,0 34.561121,1.12155279 29.4162616,3.16682665 C25.8424279,4.58755907 49.5630951,21.8568821 53.2827671,35.7409625 C49.5504045,37.5286202 37.9104344,28.349085 30.6771644,25.3111574 C23.4438944,22.2732299 9.02038751,18.8813646 6.96730019,22.2577048 C2.55193153,29.5188604 0,38.1007194 0,47.2953989 C0,67.8921454 12.8053979,85.4138057 30.6771644,91.903413 C35.470141,93.6438418 11.9055701,71.6139982 21.7154019,45.9756151 Z" id="Oval" fill="#38A169"></path>
    </g>
</svg>